<?xml version="1.0" standalone="no"?>
<!DOCTYPE svg PUBLIC "-//W3C//DTD SVG 20010904//EN"
 "http://www.w3.org/TR/2001/REC-SVG-20010904/DTD/svg10.dtd">
<svg version="1.0" xmlns="http://www.w3.org/2000/svg"
 width="270.000000pt" height="180.000000pt" viewBox="0 0 270.000000 180.000000"
 preserveAspectRatio="xMidYMid meet">
<metadata>
Created by potrace 1.16, written by Peter Selinger 2001-2019
</metadata>
<g transform="translate(0.000000,180.000000) scale(0.100000,-0.100000)"
fill="#000000" stroke="none">
<path d="M0 1757 l0 -44 73 -34 c71 -34 72 -34 73 -74 0 -44 12 -71 43 -99 17
-15 21 -16 21 -4 0 8 -11 24 -25 36 -31 27 -34 56 -5 47 14 -4 30 2 51 19 17
14 35 26 40 26 16 0 54 -43 41 -48 -7 -2 -12 -11 -12 -19 0 -8 -21 -35 -46
-60 -52 -49 -47 -50 -119 22 -22 22 -40 47 -40 55 0 8 -5 14 -12 13 -7 -2 -24
8 -37 22 -14 14 -30 25 -36 25 -6 0 -10 -46 -10 -130 0 -83 4 -130 10 -130 6
0 13 6 16 14 3 8 13 17 21 20 12 5 13 4 5 -7 -7 -8 -9 -17 -5 -20 3 -4 -2 -9
-11 -13 -9 -3 -13 -10 -10 -15 3 -5 -2 -12 -10 -15 -9 -3 -16 -16 -16 -28 0
-15 7 -21 25 -22 14 -1 22 2 19 7 -3 5 2 12 11 15 12 5 13 9 5 14 -8 5 -5 9 9
13 13 3 26 -3 38 -16 17 -20 17 -20 -1 -14 -13 5 -17 3 -13 -7 4 -10 0 -12
-14 -9 -12 4 -19 0 -19 -10 0 -8 -6 -20 -14 -27 -8 -6 -12 -18 -9 -27 5 -12 1
-14 -15 -9 l-21 7 -1 -615 0 -616 1029 0 c1063 0 1062 0 1025 38 -7 7 -11 18
-8 25 2 7 -7 20 -22 27 -16 9 -37 38 -55 75 -22 48 -28 55 -28 33 -1 -19 -9
-30 -31 -40 -16 -7 -30 -16 -30 -20 0 -5 -7 -8 -15 -8 -8 0 -23 -7 -34 -17
-11 -9 -34 -22 -52 -30 -28 -12 -30 -11 -19 2 8 9 8 15 2 15 -13 0 -36 66 -29
85 3 7 16 15 29 17 12 2 27 12 33 24 6 11 16 19 24 16 8 -3 11 0 7 6 -4 7 -19
9 -37 5 l-30 -6 30 31 c17 17 31 38 31 46 0 9 6 16 13 17 12 1 20 2 83 15 22
4 36 1 47 -11 13 -13 21 -14 37 -5 18 9 19 14 9 26 -7 9 -21 13 -31 11 -22 -6
-23 2 -3 39 8 16 15 38 15 49 0 18 2 17 13 -4 14 -29 34 -38 34 -16 0 8 -6 15
-14 15 -7 0 -13 7 -13 15 0 9 -8 18 -17 22 -10 3 -30 17 -45 31 -23 21 -34 24
-75 19 -63 -7 -96 -43 -90 -98 3 -28 1 -36 -9 -32 -8 3 -11 9 -8 14 3 5 -13 7
-35 5 -36 -4 -39 -2 -26 11 18 18 20 37 3 27 -8 -4 -10 -3 -5 2 5 5 14 9 20 9
7 0 11 15 10 38 -2 28 4 43 23 62 18 19 25 34 21 51 -2 13 -1 26 3 29 18 11
160 -48 160 -67 0 -4 6 -5 14 -2 7 3 20 -1 28 -9 8 -8 44 -29 81 -47 37 -18
67 -36 67 -42 0 -5 4 -7 9 -4 14 9 41 -4 41 -20 0 -8 5 -14 11 -14 5 0 7 5 4
10 -7 11 8 14 18 4 8 -8 -31 -44 -48 -44 -19 0 -49 -37 -34 -42 9 -3 6 -11 -8
-25 -12 -12 -24 -19 -26 -16 -3 2 -13 -11 -22 -31 -9 -19 -24 -41 -33 -48 -13
-11 -14 -11 -7 1 5 10 4 12 -3 7 -20 -12 -13 -32 27 -77 21 -25 41 -53 44 -64
4 -16 5 -17 6 -2 2 29 28 19 35 -14 10 -50 7 -56 -14 -29 -11 14 -20 19 -20
13 0 -23 34 -93 49 -98 23 -9 43 20 47 64 1 22 5 45 9 51 3 5 1 10 -4 10 -13
0 -15 37 -2 44 5 3 0 23 -10 43 -19 36 -19 37 1 58 26 28 25 35 -4 35 -25 0
-51 22 -39 33 10 11 46 7 73 -7 19 -11 30 -34 53 -117 18 -64 29 -126 28 -161
l0 -58 194 0 195 0 0 900 0 900 -77 0 -78 0 -2 -45 c-1 -45 -28 -105 -49 -112
-6 -2 -11 14 -12 38 -1 23 1 39 5 36 9 -9 43 43 43 66 0 15 -11 17 -84 17 -58
0 -86 -4 -90 -12 -5 -10 -7 -10 -12 0 -4 9 -94 12 -400 12 -299 0 -393 -3
-388 -12 5 -8 2 -9 -12 -2 -10 5 -79 10 -151 11 -111 2 -133 0 -133 -12 0 -8
-7 -15 -15 -15 -9 0 -12 6 -9 15 4 9 0 15 -9 15 -8 0 -17 -9 -20 -20 -3 -13 0
-20 9 -20 20 0 17 -18 -3 -23 -12 -3 -9 -5 8 -6 15 0 45 6 68 14 30 10 68 13
129 10 115 -7 230 -25 241 -39 13 -16 -1 -37 -27 -39 -22 -1 -25 -19 -5 -27 7
-3 9 -10 4 -18 -7 -11 -15 -11 -45 2 -41 17 -166 30 -166 17 0 -12 -39 -21
-45 -11 -6 10 -179 2 -183 -9 -2 -5 -22 -6 -46 -4 -31 4 -47 1 -58 -11 -19
-18 -27 -19 -47 -7 -12 8 -12 12 -2 25 12 14 9 16 -20 16 -28 -1 -31 -2 -16
-11 9 -5 17 -21 17 -34 0 -24 -13 -34 -23 -17 -2 4 -2 1 -1 -5 2 -7 -15 -23
-36 -35 -22 -13 -40 -27 -40 -31 0 -5 4 -6 9 -3 4 3 6 -6 3 -19 -2 -14 -8 -27
-12 -30 -5 -3 -6 3 -3 14 3 11 -2 21 -11 24 -11 4 -16 1 -16 -12 0 -16 -19
-32 -42 -35 -12 -2 -47 -44 -41 -50 4 -3 -1 -6 -10 -6 -14 0 -38 -20 -75 -65
-7 -8 -10 -15 -6 -15 4 0 0 -8 -8 -17 -8 -10 -18 -26 -21 -35 -9 -26 -26 -22
-37 7 -9 24 -30 35 -30 15 0 -11 -39 -34 -47 -27 -2 3 1 14 9 26 10 17 10 23
-1 33 -11 11 -12 10 -6 -1 6 -11 3 -13 -16 -8 -22 6 -23 5 -6 -8 10 -7 14 -16
9 -19 -8 -5 -54 45 -77 84 -8 13 -7 13 8 1 10 -8 17 -9 17 -3 0 6 -4 14 -10
17 -13 8 -13 25 1 25 5 0 7 -6 3 -12 -5 -9 -2 -8 10 1 12 10 14 16 5 22 -7 4
-1 9 17 13 34 8 61 51 37 60 -8 3 -23 1 -35 -5 -11 -6 -26 -8 -35 -5 -9 4 -13
1 -10 -6 2 -7 11 -13 20 -13 8 0 19 -4 23 -8 4 -4 -2 -7 -14 -7 -12 0 -22 -6
-22 -12 0 -9 -4 -8 -10 2 -8 13 -10 13 -10 -2 0 -10 -7 -16 -20 -15 -19 1 -19
1 0 19 23 22 25 29 7 22 -8 -3 -13 3 -13 16 0 14 7 20 23 20 13 0 23 5 23 10
0 6 5 10 11 10 5 0 8 -4 5 -9 -4 -5 2 -8 11 -6 62 12 73 17 68 25 -3 5 4 14
17 21 20 11 25 8 50 -22 15 -18 28 -29 28 -23 0 5 15 8 33 6 27 -3 44 6 107
57 88 71 126 91 172 91 24 1 38 8 52 27 14 18 16 28 8 31 -21 7 -13 21 20 38
22 11 33 13 36 5 6 -18 22 -13 22 8 0 11 6 22 12 24 7 3 3 6 -9 6 -13 1 -23
-4 -23 -11 0 -9 -3 -9 -12 0 -17 17 -148 16 -148 0 0 -10 -2 -10 -8 -1 -9 14
-52 6 -52 -10 0 -5 -9 -2 -20 8 -11 10 -20 15 -20 10 0 -10 40 -45 52 -45 4 0
8 5 8 10 0 6 4 10 10 10 16 0 0 -29 -18 -32 -10 -2 -27 2 -40 10 -20 13 -24
13 -37 -4 -15 -19 -15 -19 -8 0 4 13 3 17 -5 12 -7 -4 -12 -2 -12 5 0 7 -3 10
-6 7 -3 -4 4 -24 17 -45 56 -98 -48 -201 -150 -149 -97 51 -63 206 45 206 19
0 34 4 34 9 0 13 -61 7 -90 -8 -23 -13 -24 -13 -11 2 12 15 11 17 -8 17 -11 0
-21 -6 -21 -12 0 -8 -3 -9 -8 -3 -10 14 -55 15 -64 1 -6 -8 -8 -8 -8 1 0 9
-68 12 -270 13 l-270 1 0 -44z m1797 -94 c25 -15 48 -34 50 -44 3 -10 11 -15
18 -13 20 8 185 -161 228 -233 34 -56 77 -160 77 -187 0 -6 -11 -12 -25 -12
-14 -1 -25 2 -25 8 0 5 -9 7 -19 3 -27 -8 -38 15 -15 32 17 12 17 14 1 30 -16
16 -17 16 -17 0 0 -9 -6 -17 -13 -17 -18 0 -17 -31 0 -49 8 -7 11 -16 8 -19
-3 -4 -10 -1 -14 6 -7 12 -31 12 -62 -2 -11 -5 -15 -15 -11 -28 3 -14 1 -19
-6 -14 -7 4 -12 3 -12 -3 0 -6 25 -9 59 -8 32 1 57 5 55 8 -5 9 75 41 90 36
21 -8 40 -124 41 -247 0 -126 -9 -184 -27 -159 -7 11 -9 9 -5 -8 3 -13 -1 -24
-9 -27 -9 -4 -14 2 -14 17 0 21 0 21 -17 -2 -13 -20 -14 -27 -4 -44 11 -17 11
-19 -2 -14 -10 4 -18 -1 -22 -14 -4 -10 -11 -19 -17 -19 -6 0 -6 6 2 15 7 8 9
15 4 15 -5 0 -3 4 4 9 10 6 10 10 -3 21 -13 10 -15 9 -15 -6 0 -15 -4 -12 -18
11 -13 21 -15 33 -8 41 7 8 15 9 22 3 8 -6 10 -2 6 16 -5 28 9 33 28 10 7 -8
9 -15 5 -15 -5 0 -6 -3 -2 -6 3 -4 13 0 21 9 8 8 12 17 9 21 -4 3 -2 6 3 6 5
0 10 11 10 25 1 14 -2 25 -7 25 -5 0 -9 -9 -9 -20 0 -15 -7 -20 -24 -20 -32 0
-96 -38 -96 -57 0 -17 -28 -48 -37 -39 -3 3 -11 2 -17 -3 -16 -13 -66 -1 -66
16 0 8 -4 11 -10 8 -5 -3 -10 -4 -10 0 0 10 33 60 49 73 9 7 10 12 3 12 -7 0
-12 7 -12 15 0 31 -23 63 -58 80 -31 15 -34 19 -17 23 11 2 24 8 30 13 5 5 16
9 25 9 19 0 26 82 10 108 -9 14 -10 12 -6 -10 6 -27 -7 -47 -19 -28 -4 6 -11
8 -16 5 -21 -14 -7 18 20 44 30 30 31 41 1 41 -10 0 -23 7 -30 15 -7 8 -8 15
-3 15 5 0 10 7 10 14 0 11 -5 12 -18 5 -10 -5 -21 -14 -24 -19 -3 -6 -16 -10
-27 -10 -30 0 -88 -38 -82 -55 7 -16 -32 -40 -41 -25 -3 6 -17 7 -29 4 -17 -4
-28 0 -37 14 -11 15 -19 17 -36 11 -13 -5 -23 -13 -23 -18 0 -5 -9 -25 -20
-44 -23 -39 -54 -41 -66 -5 -14 47 -79 83 -91 52 -6 -16 -7 -16 -12 -1 -10 27
-76 -22 -79 -58 -2 -34 -9 -45 -27 -45 -9 0 -12 6 -8 16 5 14 2 16 -19 11 -17
-4 -30 -2 -37 7 -7 8 -27 17 -46 20 -19 4 -35 11 -35 16 0 6 0 12 0 15 0 2
-13 17 -28 32 -23 24 -25 28 -9 31 9 2 17 8 17 14 0 5 -7 8 -15 4 -8 -3 -15 0
-15 6 0 7 13 9 36 5 30 -5 40 -2 55 16 22 27 24 37 5 37 -7 0 -19 7 -26 15
-15 18 -10 18 24 5 23 -8 26 -7 26 12 0 48 -76 125 -88 89 -3 -9 -7 -9 -18 0
-22 18 -71 -7 -83 -41 -7 -23 -7 -28 3 -24 8 3 16 -2 19 -10 4 -9 13 -16 21
-16 9 0 13 -7 11 -20 -2 -13 3 -21 18 -26 21 -7 21 -7 -3 -17 -14 -6 -52 -12
-85 -14 -85 -3 -104 -6 -99 -15 8 -13 -10 -9 -32 7 -12 8 -24 12 -27 9 -5 -6
-41 11 -61 28 -6 5 -20 15 -31 22 -19 14 -19 15 -1 35 10 11 16 27 13 36 -4 9
-1 15 8 15 8 0 15 -3 15 -7 0 -5 14 -9 30 -10 21 -2 30 2 30 13 0 8 -4 12 -10
9 -6 -4 -7 1 -3 11 5 13 3 15 -8 10 -8 -4 -5 0 6 8 11 9 26 14 33 11 8 -3 25
-8 39 -12 21 -5 24 -3 18 8 -7 11 -6 12 7 2 8 -7 17 -10 20 -7 3 3 8 -13 10
-35 3 -37 2 -39 -13 -25 -12 10 -19 12 -24 5 -3 -6 1 -14 10 -17 9 -4 14 -13
11 -20 -7 -19 3 -18 26 3 20 18 24 73 7 105 -6 11 -29 28 -51 38 l-40 18 27
18 c17 11 29 14 33 7 4 -6 18 -14 31 -18 15 -5 21 -4 17 3 -3 6 -1 14 5 18 6
3 15 1 19 -6 5 -8 19 -11 35 -8 21 4 29 1 37 -18 6 -13 14 -24 18 -24 15 0 30
54 24 86 -6 34 -6 34 20 24 14 -5 26 -6 26 -3 0 4 13 -6 28 -22 16 -17 36 -34
46 -40 14 -8 16 -15 8 -35 -5 -14 -12 -37 -16 -52 -5 -23 -3 -26 10 -21 9 3
19 1 23 -5 4 -7 27 -14 51 -16 25 -3 47 -6 50 -7 3 -1 8 -1 12 0 4 0 5 -6 2
-14 -13 -32 23 -13 39 20 21 45 22 67 1 37 -16 -24 -44 -30 -44 -10 0 9 -3 9
-12 0 -18 -18 -42 -14 -56 8 -10 17 -16 19 -33 9 -17 -9 -20 -8 -17 3 3 7 16
14 30 16 17 2 28 -3 36 -20 10 -22 11 -22 11 -2 1 29 20 44 58 44 33 0 33 0
17 25 -9 14 -21 25 -28 25 -31 1 -39 17 -26 54 8 26 9 45 1 66 -9 26 -8 30 9
30 10 0 20 4 22 10 2 5 9 6 17 1 10 -7 11 -13 1 -31 -6 -12 -9 -25 -5 -28 3
-3 8 4 12 16 4 17 11 21 24 17 10 -4 24 -3 31 1 23 14 44 11 45 -8 2 -22 -1
-22 -23 0 -17 16 -18 16 -11 -1 4 -11 -1 -25 -13 -37 -23 -23 -46 -26 -53 -7
-2 6 -7 9 -11 6 -4 -4 1 -20 10 -36 13 -21 29 -32 61 -39 64 -15 85 22 24 41
-16 5 -21 4 -17 -4 4 -7 1 -9 -8 -5 -8 3 -12 12 -9 20 3 9 12 13 19 10 8 -3
14 0 14 6 0 9 3 9 11 1 6 -6 18 -9 27 -6 9 4 13 2 9 -4 -4 -6 5 -13 21 -16 15
-3 30 0 34 6 3 6 9 -7 13 -29 10 -60 11 -62 49 -61 19 1 33 4 30 8 -2 4 3 12
10 18 9 8 16 8 20 2 4 -6 18 -6 36 -1 17 5 28 5 25 0 -3 -5 0 -12 6 -16 6 -4
16 0 21 9 15 28 38 46 51 41 19 -7 57 33 56 59 -1 17 -2 18 -6 4 -2 -9 -9 -15
-14 -12 -5 4 -9 -2 -9 -13 0 -10 -7 -19 -15 -19 -8 0 -15 4 -15 9 0 4 4 8 9 8
14 0 6 46 -13 75 -10 15 -23 24 -31 21 -8 -3 -17 -1 -20 4 -10 16 -35 11 -35
-6 0 -8 4 -13 9 -10 13 8 34 -21 25 -35 -4 -7 -3 -9 4 -5 6 3 14 2 17 -4 5 -8
11 -7 21 1 15 13 17 9 8 -15 -7 -18 -39 -22 -49 -6 -17 27 -125 53 -125 30 0
-5 -9 -10 -20 -10 -10 0 -24 -8 -29 -17 -13 -23 -14 -12 -1 21 5 14 17 26 27
26 12 0 14 3 6 8 -9 6 -4 25 20 75 30 64 33 67 60 61 15 -3 48 -17 74 -31z
m-1402 -161 c5 -11 18 -25 30 -31 11 -5 14 -10 8 -10 -17 -1 0 -45 33 -89 l25
-32 -31 -31 c-46 -47 -61 -81 -50 -118 8 -28 -3 -46 -12 -19 -3 7 -12 4 -27
-11 -12 -12 -29 -20 -37 -17 -8 3 -14 1 -14 -4 0 -6 11 -10 25 -10 18 0 23 -4
19 -15 -4 -9 0 -15 7 -15 9 0 7 -4 -4 -11 -18 -10 -18 -11 0 -24 10 -7 21 -11
26 -8 4 2 5 -7 1 -21 -5 -21 -3 -26 12 -26 11 0 26 5 34 11 11 8 8 9 -14 4
-25 -5 -28 -4 -18 8 13 16 5 50 -9 41 -5 -3 -9 2 -9 10 0 8 5 18 11 22 13 8
29 -14 22 -32 -7 -20 12 -24 36 -8 17 12 19 19 11 29 -15 18 4 29 27 16 19
-10 55 11 66 39 4 12 6 12 6 -1 1 -9 8 -19 16 -23 21 -8 45 -68 32 -84 -7 -8
-13 -9 -22 -2 -19 15 -73 1 -81 -22 -3 -10 -17 -23 -31 -29 -32 -12 -46 -12
-38 1 4 7 -8 8 -35 4 -35 -6 -42 -4 -46 12 -3 12 -15 21 -31 22 -14 1 -31 6
-38 12 -6 5 -14 7 -18 4 -3 -3 -15 -3 -27 1 -17 5 -19 10 -9 21 9 11 7 14 -10
14 -19 0 -21 4 -15 23 9 30 11 32 29 17 11 -10 15 -10 15 0 0 6 -9 14 -19 17
-11 3 -27 23 -36 46 -13 31 -19 38 -26 26 -7 -12 -9 -12 -9 2 0 9 -18 24 -40
34 -47 21 -41 35 16 38 28 1 40 7 42 20 2 11 -3 17 -15 18 -11 0 -13 3 -5 6 7
3 19 -1 28 -7 12 -11 13 -10 8 5 -5 13 -3 16 7 13 8 -3 14 -17 14 -32 0 -15 6
-31 14 -35 26 -17 84 -9 123 15 36 23 38 27 38 73 0 43 -4 52 -35 80 -40 35
-53 38 -61 16 -4 -8 -13 -15 -21 -15 -8 0 -12 4 -8 9 3 5 -5 11 -17 13 -19 3
-14 9 32 35 60 36 90 37 105 5z m1352 -507 c5 -4 2 -5 -4 -1 -7 4 -13 3 -13
-2 0 -11 51 -58 70 -64 8 -2 -7 -11 -33 -18 -46 -14 -58 -25 -35 -32 8 -3 8
-9 1 -21 -8 -16 -12 -16 -37 8 -15 14 -31 26 -37 26 -5 1 -15 2 -21 3 -7 1
-29 -6 -49 -16 -37 -19 -71 -19 -108 1 -16 9 -19 18 -16 47 5 32 3 35 -16 32
-15 -2 -23 3 -25 15 -1 9 2 17 7 17 5 0 9 -4 9 -9 0 -5 16 -12 35 -15 19 -4
35 -12 35 -19 0 -8 4 -6 11 3 8 11 9 8 4 -14 -5 -26 -4 -28 9 -17 9 7 13 17
10 22 -3 5 1 9 9 9 8 0 17 -7 21 -15 3 -8 11 -15 18 -15 9 0 8 3 -2 10 -10 7
-11 10 -2 10 7 0 15 -7 18 -15 8 -21 27 -8 63 42 30 42 57 51 78 28z m-442
-125 c10 -11 28 -20 39 -20 19 -1 19 -2 4 -11 -9 -5 -28 -8 -40 -5 -21 3 -24
0 -23 -28 0 -17 -5 -40 -12 -51 -36 -60 59 -141 130 -110 27 11 20 26 -9 19
-19 -5 -25 -4 -20 5 4 6 14 11 22 11 17 0 17 10 1 31 -7 9 -18 14 -24 12 -7
-3 -13 0 -13 6 0 6 -4 11 -10 11 -6 0 -6 -9 0 -25 6 -15 6 -26 -1 -30 -5 -4
-7 -11 -4 -16 8 -12 -12 -12 -36 1 -22 12 -25 30 -5 30 21 0 31 21 15 31 -12
8 -11 11 4 20 9 6 15 14 12 20 -11 16 7 10 21 -8 8 -11 13 -13 14 -6 0 7 6 10
14 7 8 -3 12 -12 10 -19 -3 -7 9 -26 26 -42 39 -34 60 -69 37 -60 -12 5 -14
-3 -11 -45 3 -45 14 -67 36 -68 3 0 8 8 10 18 4 20 40 -44 52 -92 6 -25 5 -28
-8 -17 -12 10 -15 8 -21 -8 -14 -45 7 -67 58 -63 10 1 21 -8 27 -24 13 -32 13
-30 -6 -48 -8 -9 -11 -16 -6 -16 16 0 68 -72 76 -104 6 -25 5 -28 -8 -17 -12
10 -21 9 -45 -3 -16 -9 -48 -16 -70 -16 -22 0 -43 -5 -47 -11 -3 -6 -17 -8
-30 -5 -14 4 -32 2 -42 -3 -23 -12 -217 -22 -228 -11 -5 5 -37 10 -71 11 -60
2 -62 3 -57 26 5 17 2 23 -11 23 -9 0 -13 4 -10 10 3 5 15 10 26 10 11 0 17 5
14 10 -4 6 -1 9 6 8 6 -2 13 2 16 8 2 7 -5 10 -22 7 -26 -6 -29 -1 -16 32 5
11 4 25 -1 33 -7 8 -7 12 1 12 7 0 9 9 5 24 -3 14 -1 33 4 42 12 22 -8 68 -33
78 -25 9 -80 7 -110 -4 -31 -12 -57 -66 -48 -101 6 -21 5 -23 -10 -10 -11 9
-15 21 -11 37 7 26 -5 31 -37 13 -11 -5 -17 -14 -14 -20 4 -5 10 -7 15 -4 4 3
6 -3 3 -14 -3 -10 0 -22 6 -25 7 -4 8 -1 5 8 -3 9 -2 16 4 16 5 0 12 -7 16
-15 3 -8 12 -15 21 -15 14 0 17 -6 14 -27 -1 -5 -5 -7 -10 -6 -4 2 -6 -4 -2
-13 5 -14 3 -15 -16 -4 -13 6 -29 9 -37 6 -17 -7 -19 20 -1 28 6 3 0 3 -14 0
-15 -3 -30 -1 -33 5 -5 7 2 11 16 12 13 0 17 3 10 6 -6 2 -10 8 -7 13 9 14
-14 60 -30 60 -18 0 -20 16 -2 23 9 4 9 7 0 17 -10 11 -14 10 -19 -3 -8 -21
-24 -12 -24 14 0 10 -5 18 -11 17 -6 -2 -22 12 -37 31 -21 28 -23 33 -9 28 17
-6 17 -4 -3 28 -12 19 -19 39 -16 44 3 4 -5 9 -18 9 -31 0 -87 24 -83 36 5 16
80 38 122 36 22 -1 48 -1 59 -1 10 0 33 16 50 35 17 20 40 36 49 36 10 0 15 5
12 10 -3 6 0 10 7 10 7 0 24 3 38 6 24 6 24 6 6 -9 -15 -10 -20 -26 -19 -56 1
-29 -3 -41 -13 -41 -29 0 -10 -25 26 -35 3 0 15 -5 28 -9 30 -10 41 0 17 18
-18 13 -13 36 8 36 8 0 8 -3 -1 -9 -11 -6 -8 -14 12 -34 14 -14 26 -22 26 -17
0 6 15 10 33 10 26 0 36 6 45 25 19 40 14 77 -13 118 -26 37 -47 45 -75 27
-12 -8 -10 -10 10 -10 23 -1 24 -2 7 -14 -16 -13 -16 -15 -2 -30 15 -14 15
-16 1 -16 -9 0 -16 7 -16 15 0 23 -2 29 -18 45 -14 13 -11 16 19 23 19 5 53
14 75 21 32 10 45 10 58 1 8 -7 13 -15 9 -18 -3 -4 -12 -2 -20 4 -24 20 -14
-7 12 -31 15 -14 25 -18 25 -11 0 9 8 11 24 7 15 -4 28 0 36 9 7 8 16 13 20
10 8 -5 30 39 30 60 0 8 -8 16 -17 16 -10 1 -2 5 17 9 19 4 38 8 41 9 3 0 14
-8 24 -19z m255 -97 c38 -20 65 -40 60 -43 -10 -6 -11 -70 -1 -70 2 0 13 8 24
18 16 13 19 14 15 2 -2 -8 -14 -19 -26 -25 -23 -10 -30 -25 -11 -25 5 0 7 -4
4 -10 -3 -5 -15 -10 -26 -10 -11 0 -32 -7 -47 -16 l-27 -16 24 22 c15 13 21
24 15 28 -6 4 -13 17 -17 30 -4 18 -2 22 9 18 8 -3 14 -1 14 4 0 6 6 10 14 10
7 0 16 11 18 24 4 19 0 25 -18 29 -20 4 -23 1 -20 -19 7 -38 -21 -36 -63 5
-22 21 -42 45 -43 52 -2 8 -7 17 -13 21 -5 4 2 8 18 8 15 0 58 -17 97 -37z"/>
<path d="M1910 1435 c0 -8 -6 -12 -12 -10 -8 3 -14 -4 -14 -20 -1 -14 2 -25 6
-25 5 0 6 -9 3 -20 -3 -12 -14 -20 -27 -20 -68 0 -124 -72 -104 -132 12 -34
43 -62 59 -52 9 5 7 10 -6 20 -16 12 -15 15 16 33 32 19 34 20 40 3 3 -9 1
-20 -5 -24 -7 -5 -3 -8 9 -8 12 0 27 13 38 31 10 18 20 29 24 26 3 -4 0 -13
-7 -22 -7 -8 -9 -15 -5 -15 4 0 2 -7 -5 -15 -7 -8 -9 -15 -4 -15 5 -1 -2 -7
-16 -15 -14 -8 -20 -14 -13 -15 22 0 72 50 78 80 4 17 13 30 20 30 8 0 16 4
19 9 4 5 -6 8 -20 6 -25 -2 -26 -1 -20 34 3 20 1 42 -3 50 -8 12 -13 12 -35
-3 -29 -18 -35 -7 -10 18 20 20 20 20 54 -4 32 -23 44 -14 34 24 -5 22 -9 24
-26 15 -19 -10 -20 -9 -15 11 4 17 3 20 -6 11 -17 -17 -29 -13 -22 9 5 14 2
20 -9 20 -9 0 -16 -7 -16 -15z"/>
<path d="M1480 1272 c-41 -28 -51 -45 -46 -81 3 -19 1 -41 -4 -50 -6 -13 -4
-17 10 -17 10 0 16 4 14 8 -3 4 2 8 10 8 9 0 16 7 16 15 0 8 5 15 12 15 6 0 8
3 4 7 -4 5 -14 0 -21 -10 -8 -11 -16 -14 -19 -8 -8 12 50 44 64 36 6 -3 10 -1
10 5 0 6 5 8 11 5 13 -9 -18 -45 -39 -45 -16 0 -8 -14 9 -16 5 -1 14 -2 19 -3
25 -3 6 -21 -32 -32 l-43 -12 29 -10 c19 -6 30 -6 35 0 3 6 16 13 29 17 12 4
22 12 22 18 0 6 6 6 15 -2 9 -8 15 -9 15 -2 0 6 -4 14 -10 17 -5 3 -10 15 -10
26 0 10 -5 19 -11 19 -10 0 -7 49 5 69 6 9 -43 42 -61 40 -4 0 -19 -8 -33 -17z"/>
<path d="M735 604 c-8 -3 -10 -57 -5 -126 0 -4 15 -18 33 -30 19 -13 32 -28
30 -34 -6 -18 64 -13 85 6 11 11 22 16 25 14 8 -8 17 46 15 88 -2 57 -33 80
-110 83 -35 1 -67 1 -73 -1z"/>
<path d="M1125 599 c-4 -5 -15 -9 -26 -9 -10 0 -33 -13 -51 -30 -17 -16 -37
-30 -44 -30 -16 0 -17 -9 -6 -28 5 -7 15 -10 23 -7 10 4 18 -5 26 -26 9 -24
16 -29 32 -24 11 3 23 0 27 -7 4 -6 2 -14 -4 -16 -25 -8 -10 -17 28 -17 43 0
53 10 20 20 -28 9 -16 23 15 18 13 -3 22 -9 19 -14 -12 -20 16 -7 30 13 22 31
20 90 -4 121 -22 28 -76 51 -85 36z"/>
<path d="M1280 580 c0 -5 6 -10 14 -10 8 0 18 -4 21 -10 4 -7 -3 -7 -20 0 -24
9 -27 7 -41 -25 -7 -19 -14 -41 -14 -50 0 -18 43 -37 65 -29 10 4 15 0 15 -14
0 -15 -5 -19 -20 -15 -11 3 -20 1 -20 -3 0 -5 -18 -9 -39 -8 -28 0 -49 -7 -70
-23 -29 -23 -41 -45 -23 -42 20 3 20 -3 2 -21 -16 -16 -18 -25 -10 -40 6 -11
8 -20 5 -20 -3 0 5 -11 19 -25 14 -14 32 -25 40 -25 8 0 16 -5 18 -11 5 -16
95 41 103 66 5 16 8 17 12 5 3 -8 12 -22 20 -31 8 -9 15 -25 15 -35 2 -19 32
-24 68 -11 8 3 29 10 45 15 17 5 28 12 27 17 -2 4 2 11 9 16 23 14 0 23 -27
10 -15 -6 -28 -10 -30 -8 -2 2 14 12 36 22 22 10 40 23 40 28 0 6 -12 34 -26
64 -20 43 -23 57 -13 69 7 8 7 14 1 14 -12 0 -24 -29 -16 -41 3 -5 0 -9 -5 -9
-6 0 -11 4 -11 10 0 5 -26 0 -59 -12 -40 -14 -61 -28 -67 -44 -9 -22 -9 -22
-25 12 l-16 34 38 0 c20 0 44 6 51 14 8 7 23 16 35 20 31 10 18 45 -18 53 -24
4 -27 8 -18 20 7 7 14 11 17 8 6 -6 32 14 32 26 0 4 -15 9 -32 11 -25 2 -32 7
-30 21 2 14 -5 17 -48 17 -27 0 -50 -4 -50 -10z"/>
<path d="M696 1751 c-4 -5 0 -12 6 -15 7 -4 4 -5 -8 -3 -17 4 -21 -1 -23 -36
-1 -22 -4 -44 -7 -49 -3 -4 5 -8 18 -8 18 0 20 -2 8 -10 -8 -5 -11 -13 -6 -17
4 -4 13 0 20 10 7 9 17 17 22 17 4 0 3 -5 -4 -12 -17 -17 -15 -38 3 -38 14 0
20 12 16 33 -1 4 7 4 16 -1 10 -5 24 -7 31 -5 14 5 17 73 2 73 -5 0 -10 5 -10
11 0 6 7 8 16 5 14 -5 15 -4 4 9 -7 8 -17 12 -23 8 -6 -3 -7 -1 -3 5 4 8 -3
16 -19 22 -33 12 -52 13 -59 1z"/>
</g>
</svg>
